<svg width="300" height="300" viewBox="0 0 300 300" fill="none" xmlns="http://www.w3.org/2000/svg">
<circle cx="150" cy="150" r="150" fill="#6DF44C"/>
<path d="M120.573 90.685V120.419C120.573 123.211 119.885 125.684 118.509 127.838C117.133 129.972 115.209 131.637 112.736 132.833C110.283 134.01 107.481 134.598 104.33 134.598C101.498 134.598 98.9558 134.11 96.7023 133.133C94.4488 132.135 92.654 130.59 91.3179 128.496C90.0017 126.402 89.3436 123.789 89.3436 120.658H100.771C100.81 121.755 101.01 122.683 101.369 123.44C101.728 124.178 102.216 124.737 102.835 125.116C103.453 125.495 104.201 125.684 105.078 125.684C106.454 125.684 107.491 125.245 108.189 124.368C108.887 123.47 109.256 122.154 109.296 120.419V90.685H120.573ZM168.076 112.342C168.076 116.989 167.159 120.998 165.324 124.368C163.51 127.718 161.007 130.261 157.816 131.996C154.645 133.731 151.075 134.598 147.107 134.598C143.138 134.598 139.569 133.731 136.398 131.996C133.227 130.261 130.724 127.708 128.889 124.338C127.075 120.968 126.167 116.969 126.167 112.342C126.167 107.656 127.075 103.638 128.889 100.287C130.724 96.9369 133.227 94.4042 136.398 92.6892C139.569 90.9542 143.138 90.0867 147.107 90.0867C151.075 90.0867 154.645 90.9542 157.816 92.6892C161.007 94.4042 163.51 96.9369 165.324 100.287C167.159 103.638 168.076 107.656 168.076 112.342ZM156.38 112.342C156.38 109.69 156.021 107.447 155.303 105.612C154.605 103.777 153.558 102.391 152.162 101.454C150.786 100.497 149.101 100.018 147.107 100.018C145.113 100.018 143.428 100.497 142.051 101.454C140.675 102.391 139.628 103.777 138.911 105.612C138.213 107.447 137.864 109.69 137.864 112.342C137.864 114.995 138.213 117.238 138.911 119.073C139.628 120.908 140.675 122.304 142.051 123.261C143.428 124.198 145.113 124.667 147.107 124.667C149.101 124.667 150.786 124.198 152.162 123.261C153.558 122.304 154.605 120.908 155.303 119.073C156.021 117.238 156.38 114.995 156.38 112.342ZM173.64 90.685H192.217C195.427 90.685 198.16 91.1337 200.413 92.0311C202.687 92.9086 204.392 94.155 205.528 95.7703C206.685 97.3856 207.263 99.3101 207.263 101.544C207.263 103.119 206.914 104.565 206.216 105.881C205.518 107.177 204.541 108.274 203.285 109.172C202.048 110.049 200.603 110.657 198.947 110.996V111.415C200.802 111.495 202.487 111.974 204.003 112.851C205.538 113.728 206.745 114.935 207.622 116.471C208.5 118.006 208.939 119.771 208.939 121.765C208.939 124.119 208.32 126.222 207.084 128.077C205.867 129.912 204.112 131.358 201.819 132.415C199.546 133.472 196.863 134 193.772 134H173.64V90.685ZM190.781 124.876C192.137 124.876 193.264 124.697 194.161 124.338C195.078 123.979 195.757 123.46 196.195 122.782C196.654 122.104 196.883 121.277 196.883 120.3C196.883 119.282 196.644 118.405 196.165 117.667C195.707 116.909 195.029 116.341 194.131 115.962C193.254 115.583 192.197 115.394 190.96 115.394H185.008V124.876H190.781ZM190.123 108.304C191.18 108.304 192.117 108.125 192.935 107.766C193.772 107.407 194.42 106.908 194.879 106.27C195.338 105.612 195.567 104.834 195.567 103.937C195.567 103.019 195.338 102.242 194.879 101.603C194.44 100.965 193.822 100.487 193.024 100.168C192.247 99.8286 191.339 99.6591 190.302 99.6591H185.008V108.304H190.123ZM52.46 163.685H89.8222V172.868H76.7499V207H65.5622V172.868H52.46V163.685ZM87.3393 207L101.728 163.685H117.193L131.582 207H119.287L109.655 175.321H109.296L99.6339 207H87.3393ZM121.261 189.889V198.475H97.4801V189.889H121.261ZM135.889 163.685H147.256V197.816H164.935V207H135.889V163.685ZM169.871 163.685H181.238V181.424H181.837L195.208 163.685H208.55L193.683 182.979L208.879 207H195.238L185.217 190.518L181.238 195.663V207H169.871V163.685ZM234.904 177.056C234.824 176.079 234.555 175.242 234.096 174.544C233.637 173.846 232.969 173.327 232.092 172.988C231.234 172.629 230.147 172.45 228.831 172.45C227.635 172.45 226.627 172.599 225.81 172.898C225.012 173.198 224.404 173.616 223.985 174.155C223.586 174.673 223.387 175.272 223.387 175.95C223.347 177.046 223.806 177.924 224.763 178.582C225.72 179.24 227.246 179.818 229.34 180.317L232.959 181.035C237.566 182.032 240.946 183.637 243.1 185.851C245.274 188.045 246.38 190.847 246.42 194.257C246.42 197.069 245.712 199.462 244.296 201.436C242.901 203.39 240.896 204.896 238.284 205.953C235.691 206.99 232.57 207.509 228.921 207.509C225.152 207.509 221.881 206.94 219.109 205.803C216.337 204.667 214.203 202.952 212.708 200.658C211.212 198.345 210.434 195.453 210.374 191.983H221.263C221.343 193.3 221.692 194.426 222.31 195.364C222.928 196.281 223.786 196.979 224.883 197.458C225.979 197.916 227.276 198.146 228.771 198.146C230.048 198.146 231.134 197.976 232.032 197.637C232.929 197.298 233.607 196.839 234.066 196.261C234.545 195.683 234.784 195.015 234.784 194.257C234.784 193.539 234.565 192.921 234.126 192.402C233.687 191.884 232.979 191.425 232.002 191.026C231.025 190.607 229.738 190.228 228.143 189.889L223.776 188.902C219.807 188.065 216.766 186.659 214.652 184.684C212.558 182.69 211.511 180.048 211.511 176.757C211.511 174.065 212.249 171.692 213.725 169.638C215.2 167.564 217.245 165.958 219.857 164.822C222.489 163.665 225.491 163.087 228.861 163.087C232.291 163.087 235.273 163.665 237.805 164.822C240.358 165.958 242.332 167.584 243.728 169.698C245.124 171.812 245.822 174.264 245.822 177.056H234.904Z" fill="white"/>
</svg>
