<svg width="300" height="300" viewBox="0 0 300 300" fill="none" xmlns="http://www.w3.org/2000/svg">
<circle cx="150" cy="150" r="150" fill="#F7B401"/>
<path d="M90.0301 135V124.995H101.765C104.173 124.995 106.16 124.604 107.725 123.821C109.31 123.039 110.514 121.742 111.338 119.93C112.161 118.119 112.573 115.689 112.573 112.643C112.573 109.554 112.161 107.105 111.338 105.293C110.514 103.481 109.289 102.195 107.663 101.433C106.036 100.671 103.978 100.29 101.487 100.29H89.8448V90.2851H102.043C106.634 90.2851 110.607 91.1806 113.962 92.9717C117.339 94.7627 119.922 97.3361 121.713 100.692C123.525 104.047 124.431 108.031 124.431 112.643C124.431 117.254 123.525 121.238 121.713 124.593C119.922 127.949 117.349 130.522 113.993 132.313C110.658 134.104 106.726 135 102.197 135H90.0301ZM96.9473 135H85.2127V90.2851H96.9473V135ZM134.992 135V124.995H146.727C149.135 124.995 151.122 124.604 152.687 123.821C154.272 123.039 155.476 121.742 156.3 119.93C157.123 118.119 157.535 115.689 157.535 112.643C157.535 109.554 157.123 107.105 156.3 105.293C155.476 103.481 154.251 102.195 152.625 101.433C150.998 100.671 148.94 100.29 146.449 100.29H134.807V90.2851H147.005C151.595 90.2851 155.569 91.1806 158.924 92.9717C162.301 94.7627 164.884 97.3361 166.675 100.692C168.487 104.047 169.393 108.031 169.393 112.643C169.393 117.254 168.487 121.238 166.675 124.593C164.884 127.949 162.311 130.522 158.955 132.313C155.62 134.104 151.688 135 147.159 135H134.992ZM141.909 135H130.175V90.2851H141.909V135ZM170.721 135L185.574 90.2851H201.54L216.393 135H203.701L193.758 102.298H193.387L183.413 135H170.721ZM205.739 117.336V126.199H181.189V117.336H205.739ZM62.2377 165.285H81.4144C84.7289 165.285 87.5494 165.748 89.8757 166.675C92.2226 167.58 93.9828 168.867 95.1563 170.535C96.3503 172.202 96.9473 174.189 96.9473 176.495C96.9473 178.121 96.5871 179.614 95.8665 180.972C95.146 182.31 94.1372 183.443 92.8402 184.369C91.5638 185.275 90.0713 185.903 88.3625 186.253V186.685C90.2771 186.768 92.0167 187.262 93.5814 188.167C95.1665 189.073 96.4121 190.319 97.3179 191.904C98.2237 193.489 98.6766 195.311 98.6766 197.37C98.6766 199.799 98.0384 201.971 96.762 203.886C95.5062 205.78 93.6946 207.272 91.3271 208.363C88.9802 209.454 86.2112 210 83.0202 210H62.2377V165.285ZM79.9322 200.581C81.3321 200.581 82.4953 200.396 83.4217 200.026C84.3687 199.655 85.0686 199.12 85.5215 198.42C85.995 197.72 86.2318 196.865 86.2318 195.857C86.2318 194.807 85.9847 193.901 85.4907 193.139C85.0172 192.357 84.3172 191.77 83.3908 191.379C82.485 190.988 81.3939 190.792 80.1175 190.792H73.9722V200.581H79.9322ZM79.2528 183.474C80.3439 183.474 81.3115 183.288 82.1556 182.918C83.0202 182.547 83.6893 182.033 84.1628 181.374C84.6363 180.694 84.8731 179.892 84.8731 178.965C84.8731 178.018 84.6363 177.215 84.1628 176.556C83.7099 175.898 83.0717 175.404 82.2482 175.074C81.4453 174.724 80.5086 174.549 79.4381 174.549H73.9722V183.474H79.2528ZM146.171 187.643C146.171 192.439 145.224 196.577 143.33 200.056C141.456 203.515 138.873 206.14 135.579 207.931C132.305 209.722 128.62 210.618 124.524 210.618C120.427 210.618 116.742 209.722 113.468 207.931C110.195 206.14 107.611 203.505 105.717 200.026C103.844 196.546 102.907 192.419 102.907 187.643C102.907 182.805 103.844 178.656 105.717 175.198C107.611 171.739 110.195 169.125 113.468 167.354C116.742 165.563 120.427 164.667 124.524 164.667C128.62 164.667 132.305 165.563 135.579 167.354C138.873 169.125 141.456 171.739 143.33 175.198C145.224 178.656 146.171 182.805 146.171 187.643ZM134.097 187.643C134.097 184.904 133.726 182.588 132.985 180.694C132.264 178.8 131.183 177.37 129.742 176.402C128.322 175.414 126.582 174.92 124.524 174.92C122.465 174.92 120.725 175.414 119.305 176.402C117.884 177.37 116.803 178.8 116.062 180.694C115.342 182.588 114.982 184.904 114.982 187.643C114.982 190.381 115.342 192.697 116.062 194.591C116.803 196.485 117.884 197.926 119.305 198.914C120.725 199.881 122.465 200.365 124.524 200.365C126.582 200.365 128.322 199.881 129.742 198.914C131.183 197.926 132.264 196.485 132.985 194.591C133.726 192.697 134.097 190.381 134.097 187.643ZM190.392 210H180.541L163.958 185.882H163.649V210H151.915V165.285H161.951L178.287 189.341H178.657V165.285H190.392V210ZM225.534 180.015C225.266 178.924 224.793 177.998 224.113 177.236C223.454 176.474 222.621 175.898 221.612 175.506C220.624 175.115 219.461 174.92 218.122 174.92C216.064 174.92 214.293 175.414 212.811 176.402C211.349 177.39 210.217 178.842 209.414 180.756C208.632 182.65 208.241 184.925 208.241 187.581C208.241 190.278 208.611 192.583 209.352 194.498C210.114 196.392 211.226 197.843 212.687 198.852C214.149 199.861 215.93 200.365 218.03 200.365C219.883 200.365 221.457 200.087 222.754 199.532C224.051 198.955 225.019 198.142 225.657 197.092C226.295 196.042 226.614 194.807 226.614 193.386L228.714 193.633H218.277V185.141H237.948V191.286C237.948 195.26 237.093 198.708 235.385 201.631C233.696 204.534 231.339 206.758 228.313 208.302C225.307 209.846 221.859 210.618 217.968 210.618C213.665 210.618 209.867 209.691 206.573 207.838C203.279 205.986 200.716 203.33 198.884 199.871C197.072 196.413 196.166 192.357 196.166 187.704C196.166 182.928 197.124 178.8 199.038 175.321C200.953 171.842 203.547 169.197 206.82 167.385C210.114 165.573 213.789 164.667 217.844 164.667C221.324 164.667 224.494 165.326 227.356 166.644C230.217 167.941 232.533 169.752 234.304 172.079C236.074 174.405 237.124 177.051 237.454 180.015H225.534Z" fill="white"/>
</svg>
