<svg width="300" height="300" viewBox="0 0 300 300" fill="none" xmlns="http://www.w3.org/2000/svg">
<circle cx="150" cy="150" r="150" fill="#F9B939"/>
<path d="M100.083 90.685V120.419C100.083 123.211 99.3946 125.684 98.0185 127.838C96.6425 129.972 94.7181 131.637 92.2452 132.833C89.7923 134.01 86.9903 134.598 83.8394 134.598C81.0076 134.598 78.4649 134.11 76.2114 133.133C73.9579 132.135 72.1631 130.59 70.827 128.496C69.5108 126.402 68.8527 123.789 68.8527 120.658H80.2797C80.3196 121.755 80.519 122.683 80.878 123.44C81.2369 124.178 81.7255 124.737 82.3438 125.116C82.962 125.495 83.7098 125.684 84.5873 125.684C85.9633 125.684 87.0003 125.245 87.6983 124.368C88.3963 123.47 88.7652 122.154 88.8051 120.419V90.685H100.083ZM104.36 134L118.749 90.685H134.214L148.603 134H136.308L126.676 102.321H126.317L116.655 134H104.36ZM138.282 116.889V125.475H114.501V116.889H138.282ZM167.149 121.526H167.538L176.602 90.685H189.465L175.076 134H159.611L145.222 90.685H158.085L167.149 121.526ZM185.247 134L199.635 90.685H215.101L229.489 134H217.195L207.562 102.321H207.204L197.541 134H185.247ZM219.169 116.889V125.475H195.388V116.889H219.169ZM30.0546 163.685H48.631C51.8418 163.685 54.5739 164.134 56.8274 165.031C59.1008 165.909 60.8059 167.155 61.9426 168.77C63.0993 170.386 63.6776 172.31 63.6776 174.544C63.6776 176.119 63.3286 177.565 62.6306 178.881C61.9326 180.177 60.9555 181.274 59.6991 182.172C58.4627 183.049 57.0168 183.657 55.3616 183.996V184.415C57.2163 184.495 58.9014 184.974 60.417 185.851C61.9526 186.728 63.1591 187.935 64.0366 189.471C64.914 191.006 65.3528 192.771 65.3528 194.765C65.3528 197.119 64.7346 199.222 63.4981 201.077C62.2816 202.912 60.5267 204.358 58.2333 205.415C55.9599 206.472 53.2776 207 50.1865 207H30.0546V163.685ZM47.1952 197.876C48.5513 197.876 49.678 197.697 50.5754 197.338C51.4928 196.979 52.1708 196.46 52.6095 195.782C53.0682 195.104 53.2976 194.277 53.2976 193.3C53.2976 192.282 53.0582 191.405 52.5796 190.667C52.121 189.909 51.4429 189.341 50.5455 188.962C49.668 188.583 48.6111 188.394 47.3746 188.394H41.4218V197.876H47.1952ZM46.5371 181.304C47.594 181.304 48.5313 181.125 49.349 180.766C50.1865 180.407 50.8347 179.908 51.2933 179.27C51.752 178.612 51.9814 177.834 51.9814 176.937C51.9814 176.019 51.752 175.242 51.2933 174.603C50.8546 173.965 50.2364 173.487 49.4387 173.168C48.6609 172.829 47.7536 172.659 46.7165 172.659H41.4218V181.304H46.5371ZM106.903 163.685V191.505C106.903 194.715 106.125 197.527 104.57 199.94C103.034 202.333 100.85 204.198 98.0185 205.534C95.2066 206.85 91.956 207.509 88.2667 207.509C84.5773 207.509 81.3367 206.85 78.5447 205.534C75.7528 204.198 73.579 202.333 72.0235 199.94C70.488 197.527 69.7202 194.715 69.7202 191.505V163.685H81.0874V190.518C81.0874 191.874 81.3965 193.1 82.0147 194.197C82.6329 195.274 83.4904 196.121 84.5873 196.74C85.6841 197.358 86.9106 197.667 88.2667 197.667C89.6826 197.667 90.939 197.358 92.0358 196.74C93.1326 196.121 93.9802 195.274 94.5785 194.197C95.1767 193.1 95.4759 191.874 95.4759 190.518V163.685H106.903ZM112.676 163.685H131.103C134.334 163.685 137.146 164.273 139.539 165.45C141.952 166.626 143.816 168.322 145.133 170.535C146.469 172.729 147.137 175.321 147.137 178.313C147.137 181.324 146.459 183.907 145.103 186.06C143.767 188.194 141.862 189.81 139.389 190.906C136.916 192.003 134.025 192.552 130.714 192.552H119.497V183.637H128.501C129.996 183.637 131.233 183.458 132.21 183.099C133.187 182.72 133.935 182.142 134.453 181.364C134.992 180.566 135.261 179.549 135.261 178.313C135.261 177.056 134.992 176.029 134.453 175.232C133.935 174.414 133.177 173.806 132.18 173.407C131.183 173.008 129.956 172.809 128.501 172.809H124.043V207H112.676V163.685ZM148.573 207H136.158L125.629 187.167H137.774L148.573 207ZM180.52 177.954C180.261 176.897 179.803 175.999 179.144 175.262C178.506 174.524 177.699 173.965 176.721 173.586C175.764 173.207 174.637 173.018 173.341 173.018C171.347 173.018 169.632 173.497 168.196 174.454C166.78 175.411 165.683 176.817 164.906 178.672C164.148 180.506 163.769 182.71 163.769 185.283C163.769 187.895 164.128 190.129 164.846 191.983C165.584 193.818 166.66 195.224 168.076 196.201C169.492 197.178 171.217 197.667 173.251 197.667C175.046 197.667 176.572 197.398 177.828 196.859C179.085 196.301 180.022 195.513 180.64 194.496C181.258 193.479 181.567 192.282 181.567 190.906L183.602 191.146H173.491V182.919H192.546V188.872C192.546 192.721 191.718 196.062 190.063 198.893C188.428 201.705 186.144 203.859 183.213 205.355C180.301 206.85 176.961 207.598 173.192 207.598C169.024 207.598 165.344 206.701 162.153 204.906C158.963 203.111 156.48 200.539 154.705 197.188C152.95 193.838 152.073 189.909 152.073 185.402C152.073 180.776 153 176.777 154.855 173.407C156.709 170.037 159.222 167.474 162.393 165.719C165.584 163.964 169.143 163.087 173.072 163.087C176.442 163.087 179.513 163.725 182.285 165.001C185.057 166.258 187.301 168.012 189.016 170.266C190.731 172.519 191.748 175.082 192.067 177.954H180.52ZM198.229 163.685H229.16V172.868H209.597V180.736H227.575V189.919H209.597V197.816H229.07V207H198.229V163.685ZM235.143 163.685H253.57C256.8 163.685 259.612 164.273 262.005 165.45C264.418 166.626 266.283 168.322 267.599 170.535C268.935 172.729 269.603 175.321 269.603 178.313C269.603 181.324 268.925 183.907 267.569 186.06C266.233 188.194 264.329 189.81 261.856 190.906C259.383 192.003 256.491 192.552 253.181 192.552H241.963V183.637H250.967C252.463 183.637 253.699 183.458 254.677 183.099C255.654 182.72 256.402 182.142 256.92 181.364C257.459 180.566 257.728 179.549 257.728 178.313C257.728 177.056 257.459 176.029 256.92 175.232C256.402 174.414 255.644 173.806 254.647 173.407C253.65 173.008 252.423 172.809 250.967 172.809H246.51V207H235.143V163.685ZM271.039 207H258.625L248.096 187.167H260.24L271.039 207Z" fill="white"/>
</svg>
