<svg width="300" height="300" viewBox="0 0 300 300" fill="none" xmlns="http://www.w3.org/2000/svg">
<circle cx="150" cy="150" r="150" fill="#3A6096"/>
<path d="M31.6101 90.685H68.9723V99.8685H55.9V134H44.7123V99.8685H31.6101V90.685ZM73.579 90.685H92.0059C95.2366 90.685 98.0484 91.2733 100.442 92.4499C102.855 93.6265 104.719 95.3216 106.035 97.5352C107.372 99.7289 108.04 102.321 108.04 105.313C108.04 108.324 107.362 110.907 106.005 113.06C104.669 115.194 102.765 116.81 100.292 117.906C97.8191 119.003 94.9274 119.552 91.617 119.552H80.3994V110.637H89.4034C90.8991 110.637 92.1355 110.458 93.1127 110.099C94.0899 109.72 94.8377 109.142 95.3562 108.364C95.8947 107.566 96.1639 106.549 96.1639 105.313C96.1639 104.056 95.8947 103.029 95.3562 102.232C94.8377 101.414 94.0799 100.806 93.0828 100.407C92.0856 100.008 90.8592 99.8086 89.4034 99.8086H84.9462V134H73.579V90.685ZM109.475 134H97.0613L86.5317 114.167H98.6766L109.475 134ZM111.659 134L126.048 90.685H141.513L155.902 134H143.607L133.975 102.321H133.616L123.954 134H111.659ZM145.581 116.889V125.475H121.8V116.889H145.581ZM174.448 121.526H174.837L183.901 90.685H196.764L182.375 134H166.91L152.521 90.685H165.384L174.448 121.526ZM201.071 90.685H232.002V99.8685H212.438V107.736H230.417V116.919H212.438V124.816H231.912V134H201.071V90.685ZM237.985 90.685H249.352V124.816H267.031V134H237.985V90.685ZM55.9599 163.685L66.3399 188.842H66.8185L77.1388 163.685H91.3179V207H80.19V181.514H79.831L69.9894 206.671H63.1691L53.3275 181.394H52.9685V207H41.8406V163.685H55.9599ZM95.5955 207L109.984 163.685H125.449L139.838 207H127.543L117.911 175.321H117.552L107.89 207H95.5955ZM129.518 189.889V198.475H105.736V189.889H129.518ZM144.145 163.685H155.513V181.424H156.111L169.482 163.685H182.824L167.957 182.979L183.153 207H169.512L159.491 190.518L155.513 195.663V207H144.145V163.685ZM186.443 163.685H217.374V172.868H197.811V180.736H215.789V189.919H197.811V197.816H217.284V207H186.443V163.685ZM223.357 163.685H241.784C245.014 163.685 247.826 164.273 250.219 165.45C252.632 166.626 254.497 168.322 255.813 170.535C257.149 172.729 257.817 175.321 257.817 178.313C257.817 181.324 257.139 183.907 255.783 186.06C254.447 188.194 252.543 189.81 250.07 190.906C247.597 192.003 244.705 192.552 241.395 192.552H230.177V183.637H239.181C240.677 183.637 241.913 183.458 242.891 183.099C243.868 182.72 244.616 182.142 245.134 181.364C245.673 180.566 245.942 179.549 245.942 178.313C245.942 177.056 245.673 176.029 245.134 175.232C244.616 174.414 243.858 173.806 242.861 173.407C241.864 173.008 240.637 172.809 239.181 172.809H234.724V207H223.357V163.685ZM259.253 207H246.839L236.31 187.167H248.455L259.253 207Z" fill="white"/>
</svg>
