<svg width="300" height="300" viewBox="0 0 300 300" fill="none" xmlns="http://www.w3.org/2000/svg">
<circle cx="150" cy="150" r="150" fill="#08A9D3"/>
<path d="M94.3391 106.749C94.2394 105.393 93.8705 104.206 93.2323 103.189C92.6141 102.172 91.7367 101.394 90.5999 100.856C89.4632 100.297 88.147 100.018 86.6513 100.018C84.6571 100.018 82.962 100.507 81.566 101.484C80.17 102.461 79.0931 103.877 78.3353 105.732C77.5975 107.566 77.2285 109.77 77.2285 112.342C77.2285 115.035 77.5975 117.288 78.3353 119.103C79.0931 120.918 80.17 122.304 81.566 123.261C82.962 124.198 84.6172 124.667 86.5317 124.667C88.0074 124.667 89.2837 124.418 90.3606 123.919C91.4575 123.401 92.3349 122.683 92.993 121.765C93.6711 120.828 94.1198 119.721 94.3391 118.445L105.916 118.565C105.696 121.177 104.799 123.71 103.224 126.163C101.648 128.616 99.4145 130.64 96.5228 132.235C93.6511 133.811 90.2509 134.598 86.3223 134.598C82.3338 134.598 78.7641 133.731 75.6132 131.996C72.4623 130.261 69.9894 127.718 68.1946 124.368C66.4197 120.998 65.5323 116.989 65.5323 112.342C65.5323 107.656 66.4396 103.638 68.2544 100.287C70.0891 96.9369 72.5719 94.4042 75.7029 92.6892C78.8339 90.9542 82.3737 90.0867 86.3223 90.0867C89.9319 90.0867 93.1526 90.7448 95.9844 92.061C98.8162 93.3573 101.1 95.2618 102.835 97.7745C104.57 100.287 105.597 103.279 105.916 106.749H94.3391ZM153.03 112.342C153.03 116.989 152.112 120.998 150.278 124.368C148.463 127.718 145.96 130.261 142.769 131.996C139.599 133.731 136.029 134.598 132.06 134.598C128.092 134.598 124.522 133.731 121.351 131.996C118.18 130.261 115.678 127.708 113.843 124.338C112.028 120.968 111.121 116.969 111.121 112.342C111.121 107.656 112.028 103.638 113.843 100.287C115.678 96.9369 118.18 94.4042 121.351 92.6892C124.522 90.9542 128.092 90.0867 132.06 90.0867C136.029 90.0867 139.599 90.9542 142.769 92.6892C145.96 94.4042 148.463 96.9369 150.278 100.287C152.112 103.638 153.03 107.656 153.03 112.342ZM141.334 112.342C141.334 109.69 140.975 107.447 140.257 105.612C139.559 103.777 138.512 102.391 137.116 101.454C135.74 100.497 134.055 100.018 132.06 100.018C130.066 100.018 128.381 100.497 127.005 101.454C125.629 102.391 124.582 103.777 123.864 105.612C123.166 107.447 122.817 109.69 122.817 112.342C122.817 114.995 123.166 117.238 123.864 119.073C124.582 120.908 125.629 122.304 127.005 123.261C128.381 124.198 130.066 124.667 132.06 124.667C134.055 124.667 135.74 124.198 137.116 123.261C138.512 122.304 139.559 120.908 140.257 119.073C140.975 117.238 141.334 114.995 141.334 112.342ZM163.26 134V124.308H174.628C176.961 124.308 178.885 123.929 180.401 123.171C181.936 122.413 183.103 121.157 183.901 119.402C184.698 117.647 185.097 115.294 185.097 112.342C185.097 109.351 184.698 106.978 183.901 105.223C183.103 103.468 181.916 102.222 180.341 101.484C178.766 100.746 176.771 100.377 174.358 100.377H163.081V90.685H174.897C179.344 90.685 183.193 91.5525 186.443 93.2875C189.714 95.0225 192.217 97.5153 193.952 100.766C195.707 104.017 196.584 107.875 196.584 112.342C196.584 116.81 195.707 120.668 193.952 123.919C192.217 127.17 189.724 129.663 186.473 131.398C183.243 133.133 179.434 134 175.046 134H163.26ZM169.961 134H158.594V90.685H169.961V134ZM202.148 90.685H233.079V99.8685H213.515V107.736H231.493V116.919H213.515V124.816H232.989V134H202.148V90.685ZM40.9731 163.685H59.5495C62.7603 163.685 65.4924 164.134 67.7459 165.031C70.0193 165.909 71.7244 167.155 72.8611 168.77C74.0178 170.386 74.5961 172.31 74.5961 174.544C74.5961 176.119 74.2471 177.565 73.5491 178.881C72.8511 180.177 71.874 181.274 70.6176 182.172C69.3812 183.049 67.9353 183.657 66.2801 183.996V184.415C68.1348 184.495 69.8199 184.974 71.3355 185.851C72.8711 186.728 74.0776 187.935 74.9551 189.471C75.8325 191.006 76.2713 192.771 76.2713 194.765C76.2713 197.119 75.6531 199.222 74.4166 201.077C73.2001 202.912 71.4452 204.358 69.1518 205.415C66.8784 206.472 64.1961 207 61.105 207H40.9731V163.685ZM58.1137 197.876C59.4698 197.876 60.5965 197.697 61.4939 197.338C62.4113 196.979 63.0893 196.46 63.528 195.782C63.9867 195.104 64.2161 194.277 64.2161 193.3C64.2161 192.282 63.9768 191.405 63.4981 190.667C63.0395 189.909 62.3614 189.341 61.464 188.962C60.5865 188.583 59.5296 188.394 58.2932 188.394H52.3403V197.876H58.1137ZM57.4556 181.304C58.5125 181.304 59.4498 181.125 60.2675 180.766C61.105 180.407 61.7532 179.908 62.2118 179.27C62.6705 178.612 62.8999 177.834 62.8999 176.937C62.8999 176.019 62.6705 175.242 62.2118 174.603C61.7731 173.965 61.1549 173.487 60.3572 173.168C59.5794 172.829 58.6721 172.659 57.635 172.659H52.3403V181.304H57.4556ZM80.6387 163.685H99.0655C102.296 163.685 105.108 164.273 107.501 165.45C109.914 166.626 111.779 168.322 113.095 170.535C114.431 172.729 115.099 175.321 115.099 178.313C115.099 181.324 114.421 183.907 113.065 186.06C111.729 188.194 109.824 189.81 107.352 190.906C104.879 192.003 101.987 192.552 98.6766 192.552H87.459V183.637H96.463C97.9587 183.637 99.1951 183.458 100.172 183.099C101.15 182.72 101.897 182.142 102.416 181.364C102.954 180.566 103.224 179.549 103.224 178.313C103.224 177.056 102.954 176.029 102.416 175.232C101.897 174.414 101.14 173.806 100.142 173.407C99.1453 173.008 97.9188 172.809 96.463 172.809H92.0059V207H80.6387V163.685ZM116.535 207H104.121L93.5913 187.167H105.736L116.535 207ZM131.671 207H120.304V163.685H131.671V207ZM142.201 207V197.308H153.568C155.902 197.308 157.826 196.929 159.342 196.171C160.877 195.413 162.044 194.157 162.842 192.402C163.639 190.647 164.038 188.294 164.038 185.342C164.038 182.351 163.639 179.978 162.842 178.223C162.044 176.468 160.857 175.222 159.282 174.484C157.706 173.746 155.712 173.377 153.299 173.377H142.022V163.685H153.837C158.285 163.685 162.134 164.552 165.384 166.287C168.655 168.022 171.158 170.515 172.893 173.766C174.647 177.017 175.525 180.875 175.525 185.342C175.525 189.81 174.647 193.668 172.893 196.919C171.158 200.17 168.665 202.663 165.414 204.398C162.183 206.133 158.374 207 153.987 207H142.201ZM148.902 207H137.535V163.685H148.902V207ZM209.268 177.954C209.008 176.897 208.55 175.999 207.892 175.262C207.253 174.524 206.446 173.965 205.469 173.586C204.511 173.207 203.385 173.018 202.088 173.018C200.094 173.018 198.379 173.497 196.943 174.454C195.527 175.411 194.43 176.817 193.653 178.672C192.895 180.506 192.516 182.71 192.516 185.283C192.516 187.895 192.875 190.129 193.593 191.983C194.331 193.818 195.408 195.224 196.823 196.201C198.239 197.178 199.964 197.667 201.999 197.667C203.793 197.667 205.319 197.398 206.575 196.859C207.832 196.301 208.769 195.513 209.387 194.496C210.005 193.479 210.315 192.282 210.315 190.906L212.349 191.146H202.238V182.919H221.293V188.872C221.293 192.721 220.465 196.062 218.81 198.893C217.175 201.705 214.891 203.859 211.96 205.355C209.048 206.85 205.708 207.598 201.939 207.598C197.771 207.598 194.091 206.701 190.901 204.906C187.71 203.111 185.227 200.539 183.452 197.188C181.697 193.838 180.82 189.909 180.82 185.402C180.82 180.776 181.747 176.777 183.602 173.407C185.456 170.037 187.969 167.474 191.14 165.719C194.331 163.964 197.89 163.087 201.819 163.087C205.189 163.087 208.26 163.725 211.032 165.001C213.804 166.258 216.048 168.012 217.763 170.266C219.478 172.519 220.495 175.082 220.814 177.954H209.268ZM226.976 163.685H257.907V172.868H238.344V180.736H256.322V189.919H238.344V197.816H257.817V207H226.976V163.685Z" fill="white"/>
</svg>
